HIERARCHY
ROOT Root
{
  OFFSET 0.0 0.0 0.0
  CHANNELS 6 Xposition Yposition Zposition Zrotation Yrotation Xrotation
  JOINT Hips
  {
    OFFSET 0.0 100.0 0.0
    CHANNELS 6 Xposition Yposition Zposition Zrotation Yrotation Xrotation
    JOINT Spine1
    {
      OFFSET 5.003913 -0.037094 -0.013727
      CHANNELS 3 Zrotation Yrotation Xrotation
      JOINT Spine2
      {
        OFFSET 7.125363 -1e-06 0.0
        CHANNELS 3 Zrotation Yrotation Xrotation
        JOINT Chest
        {
          OFFSET 7.594027 1e-06 0.0
          CHANNELS 3 Zrotation Yrotation Xrotation
          JOINT Neck1
          {
            OFFSET 26.313086 -0.460272 -0.181672
            CHANNELS 3 Zrotation Yrotation Xrotation
            JOINT Neck2
            {
              OFFSET 8.045911 0.0 0.0
              CHANNELS 3 Zrotation Yrotation Xrotation
              JOINT Head
              {
                OFFSET 6.432774 0.0 0.0
                CHANNELS 3 Zrotation Yrotation Xrotation
                JOINT HeadEnd
                {
                  OFFSET 16.169773 0.06451 0.00362
                  CHANNELS 3 Zrotation Yrotation Xrotation
                }
                JOINT Jaw
                {
                  OFFSET 0.108741 3.12938 0.002639
                  CHANNELS 3 Zrotation Yrotation Xrotation
                }
                JOINT LeftEye
                {
                  OFFSET 4.45173 8.166359 3.206392
                  CHANNELS 3 Zrotation Yrotation Xrotation
                }
                JOINT RightEye
                {
                  OFFSET 4.436895 8.135758 -3.222429
                  CHANNELS 3 Zrotation Yrotation Xrotation
                }
              }
            }
          }
          JOINT LeftShoulder
          {
            OFFSET 23.218927 5.195579 1.621656
            CHANNELS 3 Zrotation Yrotation Xrotation
            JOINT LeftArm
            {
              OFFSET 15.902118 2e-06 -2e-06
              CHANNELS 3 Zrotation Yrotation Xrotation
              JOINT LeftForeArm
              {
                OFFSET 28.739307 0.0 -1e-06
                CHANNELS 3 Zrotation Yrotation Xrotation
                JOINT LeftHand
                {
                  OFFSET 27.093981 -4e-06 0.0
                  CHANNELS 3 Zrotation Yrotation Xrotation
                  JOINT LeftHandThumb1
                  {
                    OFFSET 2.276781 3.380274 0.83384
                    CHANNELS 3 Zrotation Yrotation Xrotation
                    JOINT LeftHandThumb2
                    {
                      OFFSET 4.705309 -1e-06 -1e-06
                      CHANNELS 3 Zrotation Yrotation Xrotation
                      JOINT LeftHandThumb3
                      {
                        OFFSET 2.798515 0.0 3e-06
                        CHANNELS 3 Zrotation Yrotation Xrotation
                        JOINT LeftHandThumbEnd
                        {
                          OFFSET 3.180793 4e-06 -4e-06
                          CHANNELS 3 Zrotation Yrotation Xrotation
                        }
                      }
                    }
                  }
                  JOINT LeftHandIndex1
                  {
                    OFFSET 3.247786 2.352677 0.137192
                    CHANNELS 3 Zrotation Yrotation Xrotation
                    JOINT LeftHandIndex2
                    {
                      OFFSET 6.367095 1e-06 0.0
                      CHANNELS 3 Zrotation Yrotation Xrotation
                      JOINT LeftHandIndex3
                      {
                        OFFSET 3.662364 0.0 0.0
                        CHANNELS 3 Zrotation Yrotation Xrotation
                        JOINT LeftHandIndex4
                        {
                          OFFSET 2.329242 4e-06 -4e-06
                          CHANNELS 3 Zrotation Yrotation Xrotation
                          JOINT LeftHandIndexEnd
                          {
                            OFFSET 2.767823 1e-06 0.0
                            CHANNELS 3 Zrotation Yrotation Xrotation
                          }
                        }
                      }
                    }
                  }
                  JOINT LeftHandMiddle1
                  {
                    OFFSET 3.163612 0.945023 -0.406112
                    CHANNELS 3 Zrotation Yrotation Xrotation
                    JOINT LeftHandMiddle2
                    {
                      OFFSET 6.276789 3e-06 0.0
                      CHANNELS 3 Zrotation Yrotation Xrotation
                      JOINT LeftHandMiddle3
                      {
                        OFFSET 4.35652 -1e-06 4e-06
                        CHANNELS 3 Zrotation Yrotation Xrotation
                        JOINT LeftHandMiddle4
                        {
                          OFFSET 2.996877 0.0 8e-06
                          CHANNELS 3 Zrotation Yrotation Xrotation
                          JOINT LeftHandMiddleEnd
                          {
                            OFFSET 2.323256 3e-06 -4e-06
                            CHANNELS 3 Zrotation Yrotation Xrotation
                          }
                        }
                      }
                    }
                  }
                  JOINT LeftHandRing1
                  {
                    OFFSET 2.882606 -0.309162 0.107445
                    CHANNELS 3 Zrotation Yrotation Xrotation
                    JOINT LeftHandRing2
                    {
                      OFFSET 6.033198 0.0 4e-06
                      CHANNELS 3 Zrotation Yrotation Xrotation
                      JOINT LeftHandRing3
                      {
                        OFFSET 4.350578 3e-06 0.0
                        CHANNELS 3 Zrotation Yrotation Xrotation
                        JOINT LeftHandRing4
                        {
                          OFFSET 2.651321 2e-06 -7e-06
                          CHANNELS 3 Zrotation Yrotation Xrotation
                          JOINT LeftHandRingEnd
                          {
                            OFFSET 1.937663 1e-06 -4e-06
                            CHANNELS 3 Zrotation Yrotation Xrotation
                          }
                        }
                      }
                    }
                  }
                  JOINT LeftHandPinky1
                  {
                    OFFSET 2.865315 -1.525436 0.575687
                    CHANNELS 3 Zrotation Yrotation Xrotation
                    JOINT LeftHandPinky2
                    {
                      OFFSET 5.54936 1e-06 -8e-06
                      CHANNELS 3 Zrotation Yrotation Xrotation
                      JOINT LeftHandPinky3
                      {
                        OFFSET 3.070974 0.0 -4e-06
                        CHANNELS 3 Zrotation Yrotation Xrotation
                        JOINT LeftHandPinky4
                        {
                          OFFSET 1.549672 1e-06 0.0
                          CHANNELS 3 Zrotation Yrotation Xrotation
                          JOINT LeftHandPinkyEnd
                          {
                            OFFSET 1.952123 0.0 0.0
                            CHANNELS 3 Zrotation Yrotation Xrotation
                          }
                        }
                      }
                    }
                  }
                }
              }
            }
          }
          JOINT RightShoulder
          {
            OFFSET 23.161716 5.296122 -1.380114
            CHANNELS 3 Zrotation Yrotation Xrotation
            JOINT RightArm
            {
              OFFSET -16.027195 -2e-06 1.1e-05
              CHANNELS 3 Zrotation Yrotation Xrotation
              JOINT RightForeArm
              {
                OFFSET -28.736639 4e-06 2e-06
                CHANNELS 3 Zrotation Yrotation Xrotation
                JOINT RightHand
                {
                  OFFSET -27.133619 6e-06 0.0
                  CHANNELS 3 Zrotation Yrotation Xrotation
                  JOINT RightHandThumb1
                  {
                    OFFSET -2.274328 -3.351035 -0.83067
                    CHANNELS 3 Zrotation Yrotation Xrotation
                    JOINT RightHandThumb2
                    {
                      OFFSET -4.703594 -3e-06 2e-06
                      CHANNELS 3 Zrotation Yrotation Xrotation
                      JOINT RightHandThumb3
                      {
                        OFFSET -2.794935 -4e-06 -3e-06
                        CHANNELS 3 Zrotation Yrotation Xrotation
                        JOINT RightHandThumbEnd
                        {
                          OFFSET -3.183852 4e-06 1e-06
                          CHANNELS 3 Zrotation Yrotation Xrotation
                        }
                      }
                    }
                  }
                  JOINT RightHandIndex1
                  {
                    OFFSET -3.253496 -2.33755 -0.127667
                    CHANNELS 3 Zrotation Yrotation Xrotation
                    JOINT RightHandIndex2
                    {
                      OFFSET -6.344434 0.0 0.0
                      CHANNELS 3 Zrotation Yrotation Xrotation
                      JOINT RightHandIndex3
                      {
                        OFFSET -3.654871 0.0 -8e-06
                        CHANNELS 3 Zrotation Yrotation Xrotation
                        JOINT RightHandIndex4
                        {
                          OFFSET -2.327586 -1e-06 0.0
                          CHANNELS 3 Zrotation Yrotation Xrotation
                          JOINT RightHandIndexEnd
                          {
                            OFFSET -2.770001 3e-06 8e-06
                            CHANNELS 3 Zrotation Yrotation Xrotation
                          }
                        }
                      }
                    }
                  }
                  JOINT RightHandMiddle1
                  {
                    OFFSET -3.168223 -0.944764 0.411762
                    CHANNELS 3 Zrotation Yrotation Xrotation
                    JOINT RightHandMiddle2
                    {
                      OFFSET -6.266691 -1e-06 -4e-06
                      CHANNELS 3 Zrotation Yrotation Xrotation
                      JOINT RightHandMiddle3
                      {
                        OFFSET -4.348901 0.0 0.0
                        CHANNELS 3 Zrotation Yrotation Xrotation
                        JOINT RightHandMiddle4
                        {
                          OFFSET -3.00024 2e-06 -4e-06
                          CHANNELS 3 Zrotation Yrotation Xrotation
                          JOINT RightHandMiddleEnd
                          {
                            OFFSET -2.321477 -4e-06 -4e-06
                            CHANNELS 3 Zrotation Yrotation Xrotation
                          }
                        }
                      }
                    }
                  }
                  JOINT RightHandRing1
                  {
                    OFFSET -2.885654 0.293261 -0.119232
                    CHANNELS 3 Zrotation Yrotation Xrotation
                    JOINT RightHandRing2
                    {
                      OFFSET -6.032835 -1e-06 -4e-06
                      CHANNELS 3 Zrotation Yrotation Xrotation
                      JOINT RightHandRing3
                      {
                        OFFSET -4.33881 0.0 -4e-06
                        CHANNELS 3 Zrotation Yrotation Xrotation
                        JOINT RightHandRing4
                        {
                          OFFSET -2.654903 -4e-06 -4e-06
                          CHANNELS 3 Zrotation Yrotation Xrotation
                          JOINT RightHandRingEnd
                          {
                            OFFSET -1.935122 0.0 4e-06
                            CHANNELS 3 Zrotation Yrotation Xrotation
                          }
                        }
                      }
                    }
                  }
                  JOINT RightHandPinky1
                  {
                    OFFSET -2.866241 1.503904 -0.60527
                    CHANNELS 3 Zrotation Yrotation Xrotation
                    JOINT RightHandPinky2
                    {
                      OFFSET -5.553177 -2e-06 0.0
                      CHANNELS 3 Zrotation Yrotation Xrotation
                      JOINT RightHandPinky3
                      {
                        OFFSET -3.062664 -1e-06 -4e-06
                        CHANNELS 3 Zrotation Yrotation Xrotation
                        JOINT RightHandPinky4
                        {
                          OFFSET -1.546529 2e-06 4e-06
                          CHANNELS 3 Zrotation Yrotation Xrotation
                          JOINT RightHandPinkyEnd
                          {
                            OFFSET -1.952341 0.0 -4e-06
                            CHANNELS 3 Zrotation Yrotation Xrotation
                          }
                        }
                      }
                    }
                  }
                }
              }
            }
          }
        }
      }
    }
    JOINT LeftLeg
    {
      OFFSET -8.443107 2.567604 10.043214
      CHANNELS 3 Zrotation Yrotation Xrotation
      JOINT LeftShin
      {
        OFFSET 43.229198 1e-06 -1e-06
        CHANNELS 3 Zrotation Yrotation Xrotation
        JOINT LeftFoot
        {
          OFFSET 42.298611 1e-06 1e-06
          CHANNELS 3 Zrotation Yrotation Xrotation
          JOINT LeftToeBase
          {
            OFFSET 14.165858 1e-06 0.0
            CHANNELS 3 Zrotation Yrotation Xrotation
            JOINT LeftToeEnd
            {
              OFFSET 6.7141 -0.234461 0.0
              CHANNELS 3 Zrotation Yrotation Xrotation
            }
          }
        }
      }
    }
    JOINT RightLeg
    {
      OFFSET -8.303923 2.592729 -10.047278
      CHANNELS 3 Zrotation Yrotation Xrotation
      JOINT RightShin
      {
        OFFSET -43.369682 0.0 1e-06
        CHANNELS 3 Zrotation Yrotation Xrotation
        JOINT RightFoot
        {
          OFFSET -42.260784 4e-06 2e-06
          CHANNELS 3 Zrotation Yrotation Xrotation
          JOINT RightToeBase
          {
            OFFSET -14.222245 -2e-06 -1e-06
            CHANNELS 3 Zrotation Yrotation Xrotation
            JOINT RightToeEnd
            {
              OFFSET -6.660062 0.232574 -2e-06
              CHANNELS 3 Zrotation Yrotation Xrotation
            }
          }
        }
      }
    }
  }
}
MOTION
Frames: 4
Frame Time: 0.03333333333333333
0.0 0.0 0.0 0.0 -0.0 0.0 1.154071 47.84827 3.794071 96.555733 -50.283791 86.391617 21.665071 -0.350156 -0.433122 -3.336464 -0.683184 -0.646458 14.87368 -0.952575 -3.368696 18.693909 -2.209054 3.042396 -2.721445 -0.16432 1.222191 -24.518425 -1.469824 1.761222 6e-06 0.0 0.0 -0.226973 0.192675 -0.021766 -0.144232 0.30083 -0.014349 -0.176142 0.087162 -0.020341 -1.838319 -67.810646 1.929838 76.033684 -5.088636 -29.449142 14.210628 -1.889072 -0.114099 -15.833743 67.792404 -17.397369 17.636631 -26.322735 52.411194 -19.466661 -14.395596 29.410389 0.0 -8.77482 -2e-06 15.704075 -18.179647 6.465404 -0.609776 -1.795655 -3.889329 -4.807088 -11.046809 -2.93785 4e-06 -20.976015 0.0 -5.019969 -25.033552 -4.03188 6e-06 -1e-06 1e-06 -10.634532 -5.686971 -3.565588 10.573275 -17.922953 -3.1139 3e-06 -13.821206 0.0 -0.501777 -31.181501 -4.027014 -11.276431 -59.005928 6.900192 -13.982712 -7.150199 -2.875041 13.772727 -8.40149 -3.218241 0.347733 -34.211544 0.771656 -0.963029 -17.733368 2.621018 0.0 0.0 -0.0 -17.346416 -20.095217 -4.201783 21.757555 -1.638376 3.866428 0.0 -6.338824 2e-06 -1.69759 -22.591745 -6.194006 -0.0 -4e-06 -3e-06 167.924606 -68.725151 11.045461 88.494904 -6.714797 -26.566483 12.55114 -1.121724 -0.059271 -22.560722 67.384087 -19.945045 22.18211 -20.375891 49.933319 -16.701813 -16.743528 28.47653 -2e-06 -12.690601 -0.0 16.72694 -17.606129 2.289704 -0.10592 -1.513855 -4.275881 -5.039038 -5.61287 -2.953557 5e-06 -11.020525 -1e-06 -6.111297 -15.895334 -3.840472 1e-06 2e-06 -1e-06 -10.283367 -5.680287 -4.341839 11.028292 -11.302406 -2.372632 -1.384267 -14.238581 -6.320122 -0.625439 -26.924191 -3.827602 -4.501435 -49.153755 -4.004919 -13.70852 -7.363474 -3.72094 18.141146 -14.052738 -3.242674 5e-06 -18.787271 -1e-06 -0.429713 -8.456045 2.555502 -1e-06 -0.0 -1e-06 -15.923532 -20.094482 -5.473585 30.419201 -7.190821 1.735925 3e-06 -8.162925 -2e-06 -1.861903 -22.861471 -6.167941 -0.0 -3e-06 -1e-06 123.422287 -2.016946 5.799922 108.091354 0.068284 0.488207 -34.964703 16.863335 -8.518725 -5.625936 1.31458 2.764434 -0.999999 -1e-06 0.0 -56.845554 -6.293448 10.210142 110.967209 -0.602426 -0.134023 -39.464352 6.420897 -5.790864 -4.740551 0.63844 1.90427 -1.000003 -0.0 -0.0 
0.0 0.0 0.0 0.0 -0.0 0.0 1.13361 47.865379 3.77325 96.432922 -50.242188 86.33252 21.594973 -0.262539 -0.38246 -3.427066 -0.673737 -0.56945 14.869682 -0.993775 -3.234346 18.614786 -2.406836 2.92254 -2.706409 -0.240604 1.09673 -24.238071 -1.314886 1.605176 7e-06 0.0 0.0 -0.229076 0.156703 -0.016415 -0.111231 0.268204 -0.000188 -0.146689 0.049239 -0.026866 -0.924668 -68.180672 1.322509 75.792221 -5.048368 -29.548635 14.210081 -1.803562 -0.077143 -13.825375 67.64006 -15.348461 17.636627 -26.322733 52.411205 -19.466663 -14.3956 29.410393 -0.0 -8.774822 -1e-06 15.6779 -18.296618 6.524826 -0.609776 -1.795654 -3.889327 -4.807088 -11.046808 -2.93785 5e-06 -20.976015 2e-06 -5.01997 -25.033552 -4.031882 6e-06 -0.0 1e-06 -10.634534 -5.686968 -3.565588 10.573277 -17.922951 -3.113899 3e-06 -13.821209 -0.0 -0.501776 -31.181498 -4.027014 -11.230547 -59.3274 6.938114 -13.982715 -7.150197 -2.875043 13.772731 -8.401493 -3.218242 0.347734 -34.211552 0.771656 -0.963028 -17.73337 2.621021 -0.0 0.0 -1e-06 -17.34642 -20.095217 -4.201782 21.757563 -1.638375 3.866426 1e-06 -6.338823 0.0 -1.697587 -22.591738 -6.194005 -0.0 -4e-06 -2e-06 168.439697 -68.747108 10.771853 88.466629 -6.566045 -26.824043 12.282335 -0.967315 -0.0537 -21.406464 67.288673 -19.016668 22.182119 -20.375898 49.933327 -16.701813 -16.743528 28.476534 -2e-06 -12.690607 -1e-06 16.633297 -17.588308 2.366819 -0.105919 -1.513858 -4.275882 -5.039042 -5.612873 -2.953558 5e-06 -11.020527 -1e-06 -6.111298 -15.895334 -3.840471 -0.0 -0.0 0.0 -10.283373 -5.680288 -4.34184 11.028297 -11.302406 -2.372632 -1.384269 -14.238581 -6.32012 -0.625437 -26.924183 -3.827602 -4.446294 -49.300354 -3.927017 -13.708526 -7.363478 -3.720939 18.141153 -14.052739 -3.242676 7e-06 -18.78727 -2e-06 -0.429711 -8.456043 2.555504 -0.0 1e-06 0.0 -15.923538 -20.094486 -5.473586 30.419222 -7.190827 1.735925 4e-06 -8.162927 -1e-06 -1.861902 -22.861469 -6.167943 0.0 -3e-06 -1e-06 123.471489 -2.189941 5.774008 108.12104 0.01143 0.498746 -35.052814 16.791994 -8.223063 -5.46355 1.303271 2.761708 -1.0 0.0 -0.0 -56.88168 -6.149859 10.122555 110.897446 -0.626665 -0.137499 -39.05822 6.261586 -5.74519 -4.769761 0.635509 1.910537 -1.000003 -0.0 -0.0 
0.0 0.0 0.0 0.0 -0.0 0.0 1.07714 47.872658 3.82749 96.389221 -50.159786 86.17733 21.507923 -0.236806 -0.331768 -3.499926 -0.669976 -0.485276 14.886054 -1.064188 -3.111366 18.552813 -2.574254 2.834198 -2.701408 -0.319183 0.943784 -24.071527 -1.227068 1.436105 7e-06 -0.0 0.0 -0.225508 0.115669 -0.006682 -0.117684 0.229251 0.006725 -0.146005 0.006717 -0.018864 0.028406 -68.410347 0.683475 75.42691 -5.125951 -29.503702 14.437808 -1.677077 -0.041906 -12.284137 67.446579 -13.812203 17.636627 -26.322733 52.41119 -19.466665 -14.395602 29.410393 -1e-06 -8.774821 -0.0 15.69163 -18.369436 6.565377 -0.609777 -1.795654 -3.889328 -4.807087 -11.046812 -2.93785 6e-06 -20.976019 -1e-06 -5.019969 -25.033556 -4.031883 6e-06 -0.0 2e-06 -10.634534 -5.68697 -3.565586 10.573274 -17.922955 -3.113903 3e-06 -13.821211 -0.0 -0.501775 -31.181505 -4.027016 -11.191198 -59.573586 6.959163 -13.982714 -7.150197 -2.875041 13.77273 -8.401493 -3.218243 0.347736 -34.211544 0.771651 -0.963028 -17.73337 2.621019 0.0 -1e-06 0.0 -17.346418 -20.095219 -4.201782 21.757557 -1.638377 3.866426 2e-06 -6.338822 1e-06 -1.697588 -22.591743 -6.194007 -0.0 -5e-06 -2e-06 169.416473 -68.823624 10.083448 88.185226 -6.402154 -27.183201 12.145879 -0.888074 -0.052472 -20.142553 67.368355 -17.852222 22.182119 -20.375893 49.933311 -16.701813 -16.74353 28.47653 -2e-06 -12.690603 -1e-06 16.592806 -17.542431 2.419635 -0.10592 -1.513856 -4.275881 -5.039041 -5.612872 -2.953556 4e-06 -11.020525 -1e-06 -6.1113 -15.895338 -3.840471 -0.0 1e-06 -2e-06 -10.283371 -5.680288 -4.34184 11.028297 -11.302409 -2.372633 -1.384269 -14.238583 -6.320123 -0.625439 -26.924194 -3.8276 -4.354166 -49.39616 -3.879614 -13.708527 -7.363479 -3.720938 18.141151 -14.052738 -3.242672 6e-06 -18.787271 -2e-06 -0.429712 -8.456044 2.555504 -0.0 -0.0 -1e-06 -15.923536 -20.094482 -5.473585 30.419214 -7.190822 1.735927 3e-06 -8.162926 -3e-06 -1.861903 -22.861469 -6.16794 -0.0 -2e-06 -1e-06 123.698715 -2.393936 5.710874 108.076225 -0.031899 0.508388 -35.3307 16.704172 -7.988233 -5.403714 1.290228 2.751098 -1.000002 0.0 0.0 -56.77338 -5.981568 10.067234 110.802086 -0.651946 -0.119526 -38.88279 6.305996 -5.675353 -4.970573 0.627319 1.911845 -1.000003 -0.0 0.0 
0.0 0.0 0.0 0.0 -0.0 0.0 1.008205 47.858082 3.810965 96.339409 -50.137871 86.033363 21.432486 -0.255541 -0.306396 -3.56022 -0.678224 -0.400621 14.857035 -1.108745 -3.01563 18.422962 -2.729303 2.789423 -2.693044 -0.366257 0.782612 -24.014593 -1.20514 1.295377 6e-06 -0.0 0.0 -0.223065 0.082325 0.00024 -0.130703 0.20048 0.00763 -0.151885 -0.031152 -0.009244 0.652778 -68.587173 0.346316 75.07061 -5.227495 -29.549177 14.803274 -1.589835 -0.023205 -10.665983 67.458374 -11.994265 17.63662 -26.322723 52.411186 -19.466656 -14.395597 29.410385 0.0 -8.774821 -1e-06 15.67023 -18.395613 6.620174 -0.609776 -1.795653 -3.889326 -4.80709 -11.046809 -2.93785 3e-06 -20.976013 1e-06 -5.019971 -25.033554 -4.03188 6e-06 0.0 1e-06 -10.634533 -5.686968 -3.565586 10.573271 -17.922947 -3.1139 2e-06 -13.821206 0.0 -0.501777 -31.181494 -4.027018 -11.177188 -59.736473 6.970874 -13.982712 -7.150198 -2.875041 13.772727 -8.401491 -3.218242 0.347732 -34.211544 0.771654 -0.963029 -17.733366 2.621018 0.0 -1e-06 -0.0 -17.346416 -20.095213 -4.20178 21.757555 -1.638375 3.866426 1e-06 -6.338822 1e-06 -1.697588 -22.591738 -6.194007 -0.0 -4e-06 -1e-06 170.44191 -68.857414 9.267748 87.846497 -6.322195 -27.608227 12.179242 -0.81633 -0.050402 -19.089632 67.531334 -16.847391 22.182106 -20.375891 49.933315 -16.701809 -16.743526 28.476524 -1e-06 -12.690598 -1e-06 16.599045 -17.522417 2.468416 -0.105919 -1.513856 -4.275881 -5.039038 -5.612869 -2.953555 5e-06 -11.020519 -2e-06 -6.111296 -15.89533 -3.840471 0.0 1e-06 0.0 -10.283367 -5.680285 -4.341839 11.028292 -11.302404 -2.372633 -1.384268 -14.238579 -6.320121 -0.625437 -26.924183 -3.827602 -4.2643 -49.531422 -3.839301 -13.70852 -7.363475 -3.720938 18.141146 -14.052736 -3.242674 6e-06 -18.78727 -2e-06 -0.429713 -8.456045 2.555504 0.0 0.0 0.0 -15.923532 -20.094481 -5.473584 30.41921 -7.190823 1.735926 3e-06 -8.162922 -2e-06 -1.861904 -22.861469 -6.167939 0.0 -2e-06 -1e-06 123.767769 -2.587829 5.708634 108.151482 -0.065947 0.51912 -35.675022 16.724022 -7.805319 -5.477025 1.274449 2.738845 -1.000002 0.0 1e-06 -56.813873 -5.788067 10.054686 110.839226 -0.641194 -0.100749 -38.828194 6.411182 -5.591813 -5.218946 0.625232 1.909837 -1.000004 -0.0 -0.0 
